.
Dead Set 2008 true horror zombie movie +subs +sample FE_CBB 2hrs .mp4  [RipMinion]

"The idea was simple; the editing not so much... Turning DEAD SET (2008 TV Series) into a True Horror Zombie Movie takes all the best Horror elements, then leaves the distractions on the cutting floor, plus the plot has been trimmed for better pacing.  Dead Set was an incredibly great TV show and the most shocking one for a long time. Responses all over the globe were praising it and rightfully so; from the plot, to the cast, to the filming and the special effects, it was a really well crafted horror show.  The worst over-the-top moments have been removed (eg. scenes with Patrick – the producer) as well as dragging conversations, scenes that lead nowhere or are stupid in trying to be funny.  That’s where I wanted to get in.  This show had so much potential for a cool fanedit movie that I just could not let it pass and I think the outcome is among the best zombie movies of the entire genre."~  -CBB aka Boon


Details, Ratings, Reviews     :  http://fanedit.org/3820/
Picture of Cover              :  http://bayimg.com/image/jakopaacb.jpg  *
~ RipMinion ~  Rare Torrents  :  http://1337x.org/user/RipMinion/
~ RipMinion ~  Rare Torrents  :  http://ninjalink.com/26683tbe
Azureus/Vuze Magnet Link      :  magnet:?xt=urn:btih:3UUNXU4TR5DE7TU64HV4UTFSZXBBWZWQ
*note: cover art pictures may not necessarily be precisely indicative.

| NOTE: Since TPB may be selling out. I bid thee farewell...
| Soon they may begin to obey corporate take down notices.
| Thus, this and all my Torrents have official New Home(s):
|  http://1337x.org/user/RipMinion/  or  http://ninjalink.com/26683tbe
| Simply click and go! There's no bs to deal with.
| Please update your bookmarks/links before the inevitable.

Encoding 'inspired by newartriot, also llt, lifechanger & secretmyth' for an Optimal blend of Quality, Compression, plus I add full AVCHD-Compliancy (eg. burn multiple movies to DVD-R disc then playback on BluRay Players & PS3 up to 1080p quality - see below).

General
Complete name                 :  Dead Set 2008 zombie movie Serious_FanEdit_CBB subs 2h5m .mp4
Format                        :  MPEG-4
Format profile                :  Base Media
Codec ID                      :  isom
File size                     :  893 MiB
Duration                      :  2h 5m
Overall bit rate              :  1 002 Kbps
Compatibility                 :  BluRay/PS3/XBOX ready!

Video
Full AVCHD Compliant          :  Yes! So, no need to re-encode!
Format                        :  AVC (h264)
Format/Info                   :  Advanced Video Codec
Format profile                :  High@L3.1
Format settings, CABAC        :  Yes
Format settings, ReFrames     :  3 frames
Codec ID                      :  avc1
Codec ID/Info                 :  Advanced Video Coding
Bit rate mode                 :  Variable
Bit rate                      :  834 Kbps (-crf 20)
Maximum bit rate              :  7 165 Kbps
Width                         :  720 pixels
Height                        :  480 pixels
Display aspect ratio          :  16/9
Frame rate mode               :  Constant
Frame rate                    :  30 fps
Standard                      :  NTSC
Resolution                    :  24 bits
Colorimetry                   :  4:2:0
Scan type                     :  Progressive
Bits/(Pixel*Frame)            :  0.081
Stream size                   :  743 MiB (83%)
Writing library               :  x264 core 80 r1376kGIT 3feaec2
Encoding settings             :  cabac=1 / ref=3 / deblock=1:3:3 / analyse=0x3:0x133 / me=umh / subme=10 / psy=1 / psy_rd=1.0:0.2 / mixed_ref=1 / me_range=64 / chroma_me=1 / trellis=2 / 8x8dct=1 / cqm=0 / deadzone=21,11 / fast_pskip=0 / chroma_qp_offset=-3 / threads=6 / sliced_threads=0 / nr=0 / decimate=1 / mbaff=0 / constrained_intra=0 / bframes=3 / b_pyramid=0 / b_adapt=2 / b_bias=0 / direct=3 / wpredb=1 / wpredp=2 / keyint=300 / keyint_min=30 / scenecut=40 / rc_lookahead=60 / rc=crf / mbtree=1 / crf=20.0 / qcomp=0.60 / qpmin=10 / qpmax=51 / qpstep=4 / vbv_maxrate=9000 / vbv_bufsize=9000 / ip_ratio=1.40 / aq=2:1.00 

Audio Track Language          :  English
Format                        :  AAC, Nero AAC Encoder v1.3.3.0
Format/Info                   :  Advanced Audio Codec
Format version                :  Version 4
Format profile                :  AAC-LC (AAC-HE{v1} extension)
Format settings, SBR          :  Yes
Format settings, PS           :  No
Codec ID                      :  40
Bit rate mode                 :  Variable
Bit rate                      :  164 Kbps (-he -q 0.25 = ~transparent)
Maximum bit rate              :  232 Kbps
Channel(s)                    :  6 channels (5.1 Surround Sound)
Channel positions             :  Front: L C R, Rear: L R, LFE
Sampling rate                 :  48.0 KHz
Resolution                    :  16 bits
Stream size                   :  146 MiB (16%)

Subtitles Language            :  English
Format                        :  Timed text
Codec ID                      :  tx3g
Bit rate                      :  58 bps (vbr)
Stream size                   :  46.5 KiB (0%)

Encode process details / FAQ  :  http://ripminion.pastebay.com/ 
Subtitle Search Engines       :  http://www.opensubtitles.org/  http://subscene.com/filmsearch.aspx  http://www.addic7ed.com/  http://www.subtitlesource.org/  .
Because, fr33dom i$n't fr33   :  http://eff.org/  ,  http://wikileaks.org/  ,  http://1337x.org/  .
More rare improved-cut movies :  http://fanedit.org/  then  http://fanedit.info/
~ RipMinion ~  Rare Torrents  :  http://ninjalink.com/26683tbe
~ RipMinion ~  Rare Torrents  :  http://1337x.org/user/RipMinion/

Playback issues? Here's the easy fix:  http://www.videolan.org/vlc/

For fast & easy Convert-to-DVD, Burn, and Play on any DVD Player from DVD-R or DVD+R_DL media, I recommend 'ConvertXtoDVD' software. Either buy or search for the Torrent.

For fast & easy Convert-to-AVCHD, Burn, and Playback on BluRay Players & PS3 in full 720p quality from a variety of disc types (DVD-R, DVD+R_DL, BD-R, BD-RE, etc.), I recommend 'multiAVCHD' freeware {link follows}.  It can auto-generate a slick customizable iTunes-style slide menu for multiple movies and burn everything to a single disc!  100% AVCHD Compliant Video, such as this, is quickly made ready (Non-compliant video is automatically re-encoded thus reducing quality, wasting lots of time, and bloating file size):

  http://www.videohelp.com/tools/multiAVCHD        (Note: the latest version broke AAC-HE 48KHz audio, so...)
  http://www.videohelp.com/tools/YAMB              (1. extract AAC audio track to .aac file)
  http://www.videohelp.com/tools/dBpowerAMP        (dbPowerAMP is free forever, only a few features expire)
  http://www.dbpoweramp.com/codec-central-m4a.htm  (2. convert .aac to .wav, 3. In multiAVCHD: replace audio track)
  http://ImgBurn.com/  (Tip: If subs are stuck On or doubled then use YAMB to remux, Un-Checking the Imbedded subs)


Please feel free to post constructive feedback, questions, comments, etc.

I really appreciate you helping seed at any capacity you can spare.

Enjoy the show,
~ RipMinion ~

.
